<?xml version="1.0" encoding="UTF-8" standalone="no"?>
<!-- Created with Inkscape (http://www.inkscape.org/) -->

<svg
   xmlns:dc="http://purl.org/dc/elements/1.1/"
   xmlns:cc="http://creativecommons.org/ns#"
   xmlns:rdf="http://www.w3.org/1999/02/22-rdf-syntax-ns#"
   xmlns:svg="http://www.w3.org/2000/svg"
   xmlns="http://www.w3.org/2000/svg"
   xmlns:sodipodi="http://sodipodi.sourceforge.net/DTD/sodipodi-0.dtd"
   xmlns:inkscape="http://www.inkscape.org/namespaces/inkscape"
   width="256"
   height="64"
   id="svg2"
   version="1.1"
   inkscape:version="0.48.4 r9939"
   sodipodi:docname="icons.svg"
   inkscape:export-filename="C:\Users\erethar\project\procedural_terrain\Assets\Textures\icons.png"
   inkscape:export-xdpi="90"
   inkscape:export-ydpi="90">
  <defs
     id="defs4" />
  <sodipodi:namedview
     id="base"
     pagecolor="#ffffff"
     bordercolor="#666666"
     borderopacity="1.0"
     inkscape:pageopacity="0.0"
     inkscape:pageshadow="2"
     inkscape:zoom="5.5351562"
     inkscape:cx="128"
     inkscape:cy="32"
     inkscape:document-units="px"
     inkscape:current-layer="layer1"
     showgrid="true"
     inkscape:snap-global="false"
     inkscape:window-width="1920"
     inkscape:window-height="1005"
     inkscape:window-x="-9"
     inkscape:window-y="-9"
     inkscape:window-maximized="1">
    <inkscape:grid
       type="xygrid"
       id="grid2985"
       empspacing="1"
       visible="true"
       enabled="true"
       snapvisiblegridlinesonly="true"
       spacingx="64px"
       spacingy="64px" />
  </sodipodi:namedview>
  <metadata
     id="metadata7">
    <rdf:RDF>
      <cc:Work
         rdf:about="">
        <dc:format>image/svg+xml</dc:format>
        <dc:type
           rdf:resource="http://purl.org/dc/dcmitype/StillImage" />
        <dc:title></dc:title>
      </cc:Work>
    </rdf:RDF>
  </metadata>
  <g
     inkscape:label="Layer 1"
     inkscape:groupmode="layer"
     id="layer1"
     transform="translate(0,-988.36218)">
    <g
       id="g3059"
       transform="matrix(0.125,0,0,0.125,64,988.36218)"
       inkscape:export-filename="C:\Users\erethar\project\procedural_terrain\Assets\Textures\melee.png"
       inkscape:export-xdpi="90"
       inkscape:export-ydpi="90">
      <path
         id="path3025"
         d="M 0,0 H 512 V 512 H 0 z"
         inkscape:connector-curvature="0" />
      <g
         id="g3027"
         transform="matrix(18.68858,0,0,18.68858,5157.9477,-9227.0289)">
        <g
           id="g3029"
           transform="matrix(0.92829,0.92829,0.92829,-0.92829,-1175.7784,529.77929)">
          <path
             id="path3031"
             d="m 477.8817,498.1319 c 0,6.8988 0.0652,13.1242 1.9305,19.6863 1.9437,-6.3312 1.7374,-12.7162 1.7374,-19.518"
             inkscape:connector-curvature="0"
             style="fill:#ffffff;fill-rule:evenodd" />
          <path
             id="path3033"
             d="m 479.7188,510.0878 -10e-6,-12.6103"
             inkscape:connector-curvature="0"
             style="fill:#ffffff;fill-rule:evenodd;stroke:#000000;stroke-width:0.76169997" />
          <path
             id="path3035"
             d="m 474.9984,497.5732 h 9.4408 v 1.6439 c -3.1061,-0.8312 -6.3458,-1.0083 -9.4408,0 v -1.6439 z"
             inkscape:connector-curvature="0"
             style="fill:#ffffff" />
          <path
             id="path3037"
             d="m 478.91,491.5236 h 1.6175 c -0.4295,2.0932 -0.478,4.1865 0,6.2797 H 478.91 c 0.5704,-2.0932 0.4481,-4.1865 0,-6.2797 z"
             inkscape:connector-curvature="0"
             style="fill:#ffffff" />
        </g>
        <g
           id="g3039"
           transform="matrix(-0.92829,0.92829,-0.92829,-0.92829,651.15308,529.77929)">
          <path
             id="path3041"
             d="m 477.8817,498.1319 c 0,6.8988 0.0652,13.1242 1.9305,19.6863 1.9437,-6.3312 1.7374,-12.7162 1.7374,-19.518"
             inkscape:connector-curvature="0"
             style="fill:#ffffff;fill-rule:evenodd" />
          <path
             id="path3043"
             d="m 479.7188,510.0878 -10e-6,-12.6103"
             inkscape:connector-curvature="0"
             style="fill:#ffffff;fill-rule:evenodd;stroke:#000000;stroke-width:0.76169997" />
          <path
             id="path3045"
             d="m 474.9984,497.5732 h 9.4408 v 1.6439 c -3.1061,-0.8312 -6.3458,-1.0083 -9.4408,0 v -1.6439 z"
             inkscape:connector-curvature="0"
             style="fill:#ffffff" />
          <path
             id="path3047"
             d="m 478.91,491.5236 h 1.6175 c -0.4295,2.0932 -0.478,4.1865 0,6.2797 H 478.91 c 0.5704,-2.0932 0.4481,-4.1865 0,-6.2797 z"
             inkscape:connector-curvature="0"
             style="fill:#ffffff" />
        </g>
        <path
           id="path3049"
           d="m -266.6386,506.6121 4.7031,4.8594"
           inkscape:connector-curvature="0"
           style="fill:none;stroke:#000000" />
        <path
           id="path3051"
           d="m -262.6855,502.7528 4.9844,4.7031"
           inkscape:connector-curvature="0"
           style="fill:none;stroke:#000000" />
      </g>
    </g>
    <g
       id="g3111"
       transform="matrix(0.125,0,0,0.125,0,988.36218)"
       inkscape:export-filename="C:\Users\erethar\project\procedural_terrain\Assets\Textures\walk.png"
       inkscape:export-xdpi="90"
       inkscape:export-ydpi="90">
      <path
         id="path3095"
         d="M 0,0 H 512 V 512 H 0 z"
         inkscape:connector-curvature="0" />
      <g
         id="g3097"
         transform="matrix(18.68858,0,0,18.68858,2603.7105,-6068.1842)">
        <path
           id="path3099"
           d="m -117.442,331.2601 c -5.0621,1.7037 -10.911,7.2647 -5.9785,12.1801 3.7653,-1.314 9.4371,1.1996 9.0264,6.8643 h -12.2846 c -0.8465,-2.1562 -2.7298,-3.8615 -5.4593,-5.4049 -0.238,0.1485 -0.4578,0.4429 -0.549,0.7625 -2.0973,-0.3165 -4.4909,-1.7965 -4.875,-3.2819 0.3196,-2.0647 1.841,-4.609 3.9361,-6.711 3.0717,-3.0819 5.1134,-6.5909 6.7275,-9.5505 4.3937,-1.5694 7.5854,1.6654 9.4563,5.1414 z"
           inkscape:connector-curvature="0"
           style="fill:#ffffff" />
        <path
           id="path3101"
           d="m -122.8176,341.9497 c -0.9302,-4.5236 1.3036,-7.9147 7.6591,-8.2961 -3.2891,-12.0386 -15.5214,-1.6027 -12.6277,7.1623 0.7335,2.2217 5.3587,3.0308 4.9686,1.1338 z"
           inkscape:connector-curvature="0"
           style="fill:#ffffff;fill-rule:evenodd;stroke:#000000" />
        <path
           id="path3103"
           d="m -136.7431,338.0328 c -1.6125,4.3711 7.4058,4.0629 11.3829,10.3057 l 11.8218,0.002"
           inkscape:connector-curvature="0"
           style="fill:none;stroke:#000000" />
      </g>
    </g>
    <g
       id="g3166"
       transform="matrix(0.12426873,0,0,0.125,128,988.36218)"
       inkscape:export-filename="C:\Users\erethar\project\procedural_terrain\Assets\Textures\bow.png"
       inkscape:export-xdpi="90"
       inkscape:export-ydpi="90">
      <path
         id="path3144"
         d="M 0,0 H 512 V 512 H 0 z"
         inkscape:connector-curvature="0" />
      <g
         id="g3146"
         transform="matrix(18.68858,0,0,18.68858,-4640.2501,-7250.3833)">
        <path
           id="path3148"
           d="m 271.5294,391.3381 c -1.878,2.2316 -2.7942,5.6514 -4.4857,8.9493 l 1.9887,1.9887 c 1.9752,-4.0803 2.6437,-8.762 5.9441,-13.1478 -1.4874,0.3986 -2.5684,1.1655 -3.4472,2.2097 z m -20.5503,20.5945 c -0.6751,0.7312 -1.193,1.6006 -1.4805,2.6738 4.4925,-3.3807 9.2927,-4.0155 13.435,-6.0988 l -1.9666,-1.9666 c -3.7864,2.0389 -7.7768,2.9968 -9.9879,5.3917 z"
           inkscape:connector-curvature="0"
           style="fill:#ffffff;fill-rule:evenodd" />
        <path
           id="path3150"
           d="m 266.9587,399.0349 2.9062,2.9062 c -2.9105,2.0678 -5.7214,4.235 -7.4673,7.4673 l -2.9062,-2.9062 c 3.099,-1.8792 5.6592,-4.2973 7.4673,-7.4673 z"
           inkscape:connector-curvature="0"
           style="fill:#ffffff;stroke:#000000" />
        <path
           id="path3152"
           d="m 254.8199,391.5526 17.6813,-0.6889 m -21.1248,21.3016 0.6332,-18.3632"
           inkscape:connector-curvature="0"
           style="fill:none;stroke:#ffffff" />
        <path
           id="path3154"
           d="m 252.0643,391.073 -0.5375,0.5816 16.4066,18.6506 3.1768,-3.177 -19.0459,-16.0552 z"
           inkscape:connector-curvature="0"
           style="fill:#ffffff;stroke:#000000" />
        <path
           id="path3156"
           d="m 263.9943,412.0171 c 3.7311,1.3551 7.4927,2.4765 11.3565,2.8179 -0.4958,-3.8435 -1.4877,-7.6222 -2.8179,-11.3565 -2.2245,3.7618 -4.5651,6.4304 -8.5386,8.5386 z"
           inkscape:connector-curvature="0"
           style="fill:#ffffff;stroke:#000000" />
        <path
           id="path3158"
           d="m 253.2921,396.3878 -2.9055,-3.9248 3.1682,0.51 -0.4373,-3.2403 3.8529,2.9776 1e-5,3.6775 -3.6783,2e-5 z"
           inkscape:connector-curvature="0"
           style="stroke:#ffffff" />
      </g>
    </g>
  </g>
</svg>
